<?xml version="1.0" encoding="UTF-8" standalone="no"?>
<svg xmlns:inkscape="http://www.inkscape.org/namespaces/inkscape" xmlns:sodipodi="http://sodipodi.sourceforge.net/DTD/sodipodi-0.dtd" xmlns="http://www.w3.org/2000/svg" xmlns:svg="http://www.w3.org/2000/svg" version="1.1" id="layer" x="0px" y="0px" viewBox="0 0 600.09998 229.60001" xml:space="preserve" sodipodi:docname="pci-dss-compliant-logo-vector.svg" width="600.09998" height="229.60001" inkscape:version="1.2.1 (9c6d41e4, 2022-07-14)"><defs id="defs156"></defs>
<style type="text/css" id="style111">
	.st0{enable-background:new    ;}
	.st1{fill:#225E63;}
	.st2{fill:#FEFEFE;}
	.st3{fill:#2BBC5D;}
</style>
<g id="Page-1" transform="translate(-20.8,-206.8)">
	<g transform="translate(0,-8)" id="g150">
		<g class="st0" id="g131">
			<path class="st1" d="m 430.5,345.2 6,1.8 c -0.4,1.7 -1,3.1 -1.9,4.2 -0.9,1.1 -1.9,2 -3.2,2.5 -1.3,0.6 -2.9,0.9 -4.9,0.9 -2.4,0 -4.3,-0.3 -5.9,-1 -1.5,-0.7 -2.8,-1.9 -3.9,-3.7 -1.1,-1.7 -1.7,-4 -1.7,-6.7 0,-3.6 1,-6.4 2.9,-8.4 1.9,-2 4.7,-2.9 8.2,-2.9 2.8,0 4.9,0.6 6.5,1.7 1.6,1.1 2.8,2.8 3.5,5.2 l -6,1.3 c -0.2,-0.7 -0.4,-1.2 -0.7,-1.5 -0.4,-0.5 -0.8,-0.9 -1.4,-1.2 -0.6,-0.3 -1.2,-0.4 -1.8,-0.4 -1.5,0 -2.7,0.6 -3.5,1.9 -0.6,0.9 -0.9,2.4 -0.9,4.3 0,2.4 0.4,4.1 1.1,5 0.7,0.9 1.8,1.4 3.1,1.4 1.3,0 2.3,-0.4 2.9,-1.1 0.8,-0.9 1.3,-1.9 1.6,-3.3 z" id="path113"></path>
			<path class="st1" d="m 438.9,343.2 c 0,-3.6 1,-6.4 3,-8.4 2,-2 4.8,-3 8.4,-3 3.7,0 6.5,1 8.5,2.9 2,2 3,4.7 3,8.3 0,2.6 -0.4,4.7 -1.3,6.3 -0.9,1.6 -2.1,2.9 -3.8,3.8 -1.6,0.9 -3.7,1.4 -6.1,1.4 -2.5,0 -4.5,-0.4 -6.2,-1.2 -1.6,-0.8 -2.9,-2 -4,-3.8 -1.1,-1.8 -1.5,-3.7 -1.5,-6.3 z m 6.8,0 c 0,2.2 0.4,3.8 1.2,4.8 0.8,1 1.9,1.5 3.4,1.5 1.5,0 2.6,-0.5 3.4,-1.4 0.8,-1 1.2,-2.7 1.2,-5.1 0,-2.1 -0.4,-3.6 -1.3,-4.5 -0.8,-1 -2,-1.4 -3.4,-1.4 -1.4,0 -2.5,0.5 -3.3,1.5 -0.8,0.8 -1.2,2.4 -1.2,4.6 z" id="path115"></path>
			<path class="st1" d="m 465.3,332.2 h 8.9 l 3.4,13.4 3.4,-13.4 h 8.9 v 22 h -5.6 v -16.8 l -4.3,16.8 h -5 l -4.3,-16.8 v 16.8 h -5.6 v -22 z" id="path117"></path>
			<path class="st1" d="m 494.3,332.2 h 11.3 c 2.5,0 4.3,0.6 5.5,1.8 1.2,1.2 1.8,2.8 1.8,5 0,2.2 -0.7,4 -2,5.2 -1.3,1.3 -3.4,1.9 -6.1,1.9 h -3.7 v 8.2 h -6.8 z m 6.8,9.4 h 1.7 c 1.3,0 2.2,-0.2 2.8,-0.7 0.5,-0.5 0.8,-1 0.8,-1.7 0,-0.7 -0.2,-1.3 -0.7,-1.8 -0.5,-0.5 -1.3,-0.7 -2.6,-0.7 h -1.9 v 4.9 z" id="path119"></path>
			<path class="st1" d="m 516.5,332.2 h 6.8 v 16.6 h 10.6 v 5.4 h -17.4 z" id="path121"></path>
			<path class="st1" d="m 537.3,332.2 h 6.8 v 22 h -6.8 z" id="path123"></path>
			<path class="st1" d="m 562.5,350.5 h -7.7 l -1.1,3.6 h -6.9 l 8.3,-22 h 7.4 l 8.3,22 h -7.1 z m -1.4,-4.7 -2.4,-7.9 -2.4,7.9 z" id="path125"></path>
			<path class="st1" d="m 572.9,332.2 h 6.3 l 8.3,12.2 v -12.2 h 6.4 v 22 h -6.4 l -8.2,-12.1 v 12.1 h -6.4 z" id="path127"></path>
			<path class="st1" d="m 596.9,332.2 h 20.7 v 5.4 h -6.9 v 16.6 h -6.8 V 337.6 H 597 v -5.4 z" id="path129"></path>
		</g>
		<g id="Rectangle-3-_x2B_-Letters" transform="translate(0,8.5)">
			<path id="Rectangle-3" class="st1" d="M 348.7,357.2 368.4,351 362,336.8 c -4.7,5.9 -9.4,13.5 -13.3,20.4 z m -6.7,-64.9 -38.6,-86 -282.6,16 78.3,213.6 150.7,-47.5 c -9.6,-13.8 -13.1,-30.2 -2,-38.2 12.4,-9 31.1,1.4 43,16.1 11.5,-19.2 43.8,-63.9 51.2,-74 z"></path>
			<g id="Letters" transform="translate(101.9958,41.34965)">
				<path id="Oval-1" class="st2" d="m 192.6,227.1 c 11.8,0 21.4,-9 21.4,-20.2 0,-11.2 -9.6,-20.2 -21.4,-20.2 -11.8,0 -21.4,9 -21.4,20.2 0,11.1 9.6,20.2 21.4,20.2 z m -17.5,8.7 h 35 v 91.5 h -35 z"></path>
				<path id="Path-3" class="st2" d="m 157.8,262.5 c 0.3,0.1 0.5,0 0.5,-0.3 V 239 c 0,-0.3 -0.2,-0.6 -0.5,-0.8 0,0 -4.6,-3 -18.6,-3.8 -0.7,-0.4 -13,-0.5 -16.3,0 -51,4.1 -52.9,41 -52.9,42.6 v 9 c 0,1.1 0,38.8 52.9,42.1 5.2,0.4 15.3,0 16.3,0 12.2,0 20.6,-3.7 20.6,-3.7 0.3,-0.1 0.5,-0.4 0.5,-0.7 V 302 c 0,-0.3 -0.2,-0.4 -0.4,-0.2 0,0 -3.8,3 -20.4,4.7 -4.7,0.5 -7,0.3 -8.7,0 -23.6,-4 -24.7,-21.2 -24.7,-21.2 0,-0.3 -0.1,-0.8 -0.1,-1 v -6.6 c 0,-0.3 0,-0.8 0.1,-1 0,0 1.6,-18.5 24.7,-20.5 h 8.7 c 10.1,1.3 18.3,6.3 18.3,6.3 z"></path>
				<path id="Path-1" class="st2" d="m -27.2,327 c 0,0.3 0.2,0.5 0.5,0.5 H 7.4 c 0.3,0 0.5,-0.2 0.5,-0.5 v -26.6 c 0,-0.3 0.2,-0.5 0.5,-0.5 0,0 54.5,3.9 54.5,-32.6 0,-28.9 -34.2,-32 -45.4,-31.5 -0.2,0 -44.2,0 -44.2,0 -0.3,0 -0.5,0.2 -0.5,0.5 z M 7.3,279.6 v -23.9 h 8.4 c 0,0 12.1,0.5 13.1,8.8 0.2,0.6 0.2,4.7 0,4.9 -1.6,9.7 -12.1,10.2 -12.1,10.2 z"></path>
			</g>
			<path id="Path-7" class="st3" d="m 295.6,412.8 c 2.8,0 5,0 8.6,-1.6 12.4,-6.5 54.3,-108.8 98.5,-140.3 0.3,-0.2 0.6,-0.5 0.8,-0.8 0.3,-0.4 0.3,-0.8 0.3,-0.8 0,0 0,-2.1 -6.5,-2.1 -39.3,-1.1 -80.2,81.4 -101.7,114 -0.3,0.4 -1.7,0 -1.7,0 0,0 -14.4,-17 -26.9,-23.5 -0.3,-0.1 -1.7,-0.6 -3.2,-0.5 -1,0 -6.8,1.2 -9.5,4 -3.2,3.4 -3.1,5.3 -3.1,9.4 0,0.3 0.2,1.7 0.6,2.4 3.1,5.4 17,24.6 28.5,35.2 1.7,1.3 4.4,4.6 15.3,4.6 z"></path>
		</g>
		<g class="st0" id="g144">
			<path class="st1" d="M 414.3,248.5 H 447 c 6.5,0 11.7,0.9 15.6,2.6 4,1.8 7.3,4.3 9.8,7.5 2.6,3.3 4.5,7.1 5.6,11.4 1.2,4.3 1.8,8.9 1.8,13.8 0,7.6 -0.9,13.5 -2.6,17.7 -1.7,4.2 -4.1,7.7 -7.2,10.6 -3.1,2.8 -6.4,4.7 -9.9,5.7 -4.8,1.3 -9.2,1.9 -13.1,1.9 h -32.7 z m 22,16.1 v 38.9 h 5.4 c 4.6,0 7.9,-0.5 9.8,-1.5 1.9,-1 3.5,-2.8 4.6,-5.3 1.1,-2.5 1.7,-6.7 1.7,-12.4 0,-7.6 -1.2,-12.7 -3.7,-15.5 -2.5,-2.8 -6.5,-4.2 -12.3,-4.2 z" id="path140"></path>
			<path class="st1" d="m 485.9,296.2 21,-1.3 c 0.5,3.4 1.4,6 2.8,7.8 2.3,2.9 5.5,4.3 9.7,4.3 3.1,0 5.6,-0.7 7.3,-2.2 1.7,-1.5 2.6,-3.2 2.6,-5.1 0,-1.8 -0.8,-3.5 -2.4,-5 -1.6,-1.5 -5.4,-2.8 -11.3,-4.1 -9.7,-2.2 -16.5,-5.1 -20.7,-8.7 -4.2,-3.6 -6.2,-8.2 -6.2,-13.8 0,-3.7 1.1,-7.1 3.2,-10.4 2.1,-3.3 5.3,-5.8 9.6,-7.7 4.3,-1.9 10.1,-2.8 17.5,-2.8 9.1,0 16.1,1.7 20.8,5.1 4.8,3.4 7.6,8.8 8.5,16.2 l -20.8,1.2 c -0.6,-3.2 -1.7,-5.5 -3.5,-7 -1.8,-1.5 -4.2,-2.2 -7.3,-2.2 -2.6,0 -4.5,0.5 -5.8,1.6 -1.3,1.1 -1.9,2.4 -1.9,4 0,1.1 0.5,2.2 1.6,3.1 1,0.9 3.5,1.8 7.4,2.6 9.6,2.1 16.5,4.2 20.7,6.3 4.2,2.1 7.2,4.8 9.1,7.9 1.9,3.1 2.8,6.7 2.8,10.6 0,4.6 -1.3,8.8 -3.8,12.6 -2.5,3.9 -6.1,6.8 -10.6,8.8 -4.5,2 -10.3,3 -17.2,3 -12.1,0 -20.5,-2.3 -25.2,-7 -4.6,-4.7 -7.2,-10.6 -7.9,-17.8 z" id="path142"></path>
		</g>
		<g class="st0" id="g148">
			<path class="st1" d="m 556.2,296.2 21,-1.3 c 0.5,3.4 1.4,6 2.8,7.8 2.3,2.9 5.5,4.3 9.7,4.3 3.1,0 5.6,-0.7 7.3,-2.2 1.7,-1.5 2.6,-3.2 2.6,-5.1 0,-1.8 -0.8,-3.5 -2.4,-5 -1.6,-1.5 -5.4,-2.8 -11.3,-4.1 -9.7,-2.2 -16.5,-5.1 -20.7,-8.7 -4.1,-3.6 -6.2,-8.2 -6.2,-13.8 0,-3.7 1.1,-7.1 3.2,-10.4 2.1,-3.3 5.3,-5.8 9.6,-7.7 4.3,-1.9 10.1,-2.8 17.5,-2.8 9.1,0 16.1,1.7 20.8,5.1 4.8,3.4 7.6,8.8 8.5,16.2 l -20.8,1.2 c -0.6,-3.2 -1.7,-5.5 -3.5,-7 -1.8,-1.5 -4.2,-2.2 -7.3,-2.2 -2.6,0 -4.5,0.5 -5.8,1.6 -1.3,1.1 -1.9,2.4 -1.9,4 0,1.1 0.5,2.2 1.6,3.1 1,0.9 3.5,1.8 7.4,2.6 9.6,2.1 16.5,4.2 20.7,6.3 4.2,2.1 7.2,4.8 9.1,7.9 1.9,3.1 2.8,6.7 2.8,10.6 0,4.6 -1.3,8.8 -3.8,12.6 -2.5,3.9 -6.1,6.8 -10.6,8.8 -4.5,2 -10.3,3 -17.2,3 -12.1,0 -20.5,-2.3 -25.2,-7 -4.7,-4.7 -7.3,-10.6 -7.9,-17.8 z" id="path146"></path>
		</g>
	</g>
</g>
</svg>
